<svg width="12" height="15" viewBox="0 0 12 15" fill="none" xmlns="http://www.w3.org/2000/svg">
<rect width="12" height="15" fill="#E5E5E5"/>
<rect width="1920" height="5643" transform="translate(-406 -5441)" fill="white"/>
<rect x="-406" y="-211" width="1920" height="413" fill="#F6F6F8"/>
<path d="M6.48959 0C3.45827 0 0.992188 2.46609 0.992188 5.4974C0.992188 6.88992 1.86961 8.85738 3.60018 11.3452C4.8651 13.1638 6.10918 14.5711 6.1616 14.6301L6.48959 15L6.81769 14.6301C6.86999 14.5711 8.11407 13.1638 9.3791 11.3452C11.1096 8.85738 11.9871 6.88992 11.9871 5.4974C11.9871 2.46609 9.5209 0 6.48959 0ZM8.66396 10.8373C7.80898 12.0673 6.94483 13.1259 6.48959 13.666C6.03548 13.1274 5.17455 12.0728 4.32013 10.8444C2.7167 8.53935 1.86915 6.69033 1.86915 5.4974C1.86915 2.94971 3.9419 0.876961 6.48959 0.876961C9.03738 0.876961 11.11 2.94971 11.11 5.4974C11.11 6.68907 10.2642 8.53558 8.66396 10.8373Z" fill="#999999"/>
<path d="M6.48866 2.03174C4.6996 2.03174 3.24414 3.4872 3.24414 5.27625C3.24414 7.06531 4.6996 8.52088 6.48866 8.52088C8.27782 8.52088 9.73328 7.06531 9.73328 5.27625C9.73328 3.4872 8.27782 2.03174 6.48866 2.03174ZM6.48866 7.64392C5.18323 7.64392 4.1211 6.58179 4.1211 5.27625C4.1211 3.97083 5.18323 2.9087 6.48866 2.9087C7.7942 2.9087 8.85632 3.97083 8.85632 5.27625C8.85632 6.58179 7.7942 7.64392 6.48866 7.64392Z" fill="#999999"/>
</svg>
